<svg xmlns="http://www.w3.org/2000/svg" enable-background="new 0 0 650 700" viewBox="0 0 650 700"><path fill="#ccc" d="M320.42 335.642c-.765 6.15 3.317 12.12 8.636 15.3 10.846 6.484 24.437 3.331 36.175 7.354.419 3.244 2.984 5.888 5.934 7.302 2.95 1.413 6.267 1.807 9.516 2.182 56.654 6.542 76.068 9.294 97.749 9.037 6.714-.08 14.404-1.002 18.208-6.535l33.776 1.088c5.817.187 12.286.146 16.567-3.797 3.45-3.177 4.588-8.273 4.064-12.934-.524-4.66-2.483-9.022-4.416-13.296-1.914 6.514-2.127 13.899-6.501 19.09-5.85 6.943-16.352 6.928-25.41 6.336-26.728-1.747-26.282-1.937-28.386-1.195-1.24.438-2.303 1.26-3.465 1.878-2.53 1.345-5.456 1.687-8.309 1.945-18.652 1.688-35.364-1.246-55.949-2.63-7.075-.476-13.905-2.965-20.982-3.421-5.367-.346-10.793.005-16.098-.88s-10.679-3.245-13.634-7.739c-1.551-2.359-1.84-3.185-5.209-3.455-8.82-.707-17.878.315-26.394-2.088s-16.654-9.752-15.942-18.571l.384 11.477"/><path d="M368.588 296.295c0-6.902-2.48-14.998-11.716-15.17-9.492-.177-11.56 8.257-11.56 15.16l-3.658.227c0-9.071 2.876-19.536 15.352-19.304 12.137.226 15.318 10.177 15.318 19.249"/><path d="M341.654 298.012a1.5 1.5 0 0 1-1.5-1.5c0-11.97 4.865-21.052 16.88-20.804 10.67.199 16.79 7.761 16.79 20.749a1.5 1.5 0 0 1-3 0c0-7.98-2.403-17.537-13.847-17.75-9.695-.151-13.4 6.632-13.79 16.207l.654-.041c.462-11.094 6.061-15.41 13.06-15.248 8.258.154 13.187 6.386 13.187 16.67a1.5 1.5 0 0 1-3 0c0-5.034-1.33-13.504-10.244-13.67-7.636-.12-10.032 6.052-10.032 13.66a1.5 1.5 0 0 1-1.406 1.496l-3.658.228a1.503 1.503 0 0 1-.094.003z"/><path d="M338.114 327.629c-.836-.796-1.296-1.843-1.296-2.948v-25.038c0-1.77 1.217-3.372 3.027-3.99a5.004 5.004 0 0 1 1.883-.263l30.98.076c2.576.126 4.539 1.995 4.539 4.257v8.938a1.5 1.5 0 0 1-3 0v-8.938c0-.65-.725-1.215-1.617-1.259l-30.982-.076c-.337-.02-.588.02-.832.105-.599.203-.998.665-.998 1.15v24.973c0 .419.198.682.365.84.349.333.86.506 1.396.482l31.123-.074c.82-.042 1.545-.606 1.545-1.256v-11.066a1.5 1.5 0 0 1 3 0v11.066c0 2.262-1.963 4.13-4.468 4.254l-31.122.074a4.85 4.85 0 0 1-3.543-1.307z"/><ellipse cx="358.267" cy="311.303" rx="3.906" ry="3.809"/><path d="M358.267 316.612c-2.98 0-5.405-2.382-5.405-5.31s2.425-5.308 5.405-5.308c2.982 0 5.406 2.381 5.406 5.309s-2.424 5.309-5.406 5.309zm0-7.618c-1.326 0-2.405 1.035-2.405 2.309s1.079 2.309 2.405 2.309c1.327 0 2.406-1.036 2.406-2.31s-1.079-2.308-2.406-2.308z"/><path d="M357.106 313.815h1.9v5.412h-1.9z"/><path d="M359.006 320.728h-1.9a1.5 1.5 0 0 1-1.5-1.5v-5.413a1.5 1.5 0 0 1 1.5-1.5h1.9a1.5 1.5 0 0 1 1.5 1.5v5.413a1.5 1.5 0 0 1-1.5 1.5zM445.848 369.095c-10.273-.462-30.573-2.148-38.32-2.837-5.193-.462-10.099-.898-15.465-1.148-4.749-.22-10.59-1.24-16.027-2.799a14.02 14.02 0 0 1-3.202-1.39h-.001c-6.35-3.716-10.09-11.592-5.33-17.4 2.574-3.14 7.277-5.237 11.782-5.404-.79-4.783 1.82-10.323 6.503-13.175 4.026-2.452 9.208-3.472 15.789-3.093 1.222-5.065 2.887-8.819 5.077-11.45 3.704-4.455 6.486-6.293 10.323-8.127 11.299-5.397 24.053-5.871 35.917-1.334 12.198 4.666 20.398 17.407 19.272 29.532 9.193 1.006 16.274 5.12 21.61 12.544 6.231 8.665 1.71 20.355-8.106 25.112-7.899 3.828-30.593 1.381-39.822.969zm-71.5-10.763c.835.488 1.68.856 2.514 1.095 5.224 1.497 10.814 2.476 15.34 2.686 5.43.253 10.366.692 15.592 1.157 28.606 2.544 38.104 2.785 44.915 3.223 10.351.667 25.999 1.673 31.652-1.067 8.197-3.972 12.072-13.577 6.98-20.66-5.156-7.173-11.817-10.81-20.962-11.444a1.5 1.5 0 0 1-1.377-1.737c1.792-11.045-5.915-23.536-17.18-27.845-11.086-4.24-23.002-3.801-33.552 1.24-3.53 1.687-5.94 3.285-9.31 7.336-2.052 2.468-3.603 6.209-4.742 11.437a1.508 1.508 0 0 1-1.588 1.176c-6.56-.537-11.555.306-15.282 2.576-4.19 2.552-6.29 7.754-4.683 11.598a1.5 1.5 0 0 1-1.547 2.07c-4.024-.443-8.98 1.427-11.295 4.25-3.528 4.304-.14 10.179 4.524 12.909zM445.958 380.981l-34.821-3.115 16.219 23.156z"/><path d="M427.356 402.521c-.034 0-.068 0-.102-.003a1.5 1.5 0 0 1-1.126-.636l-16.22-23.155a1.5 1.5 0 0 1 1.363-2.354l34.82 3.114a1.5 1.5 0 0 1 .966 2.515l-18.601 20.04c-.285.307-.684.48-1.1.48zm-13.14-22.873 13.303 18.993 15.258-16.438-28.56-2.555z"/><path d="m434.085 354.482-11.41-.497-.39 26.756 11.427 1.062z"/><path d="M433.712 383.303c-.045 0-.092-.002-.138-.007l-11.429-1.062a1.5 1.5 0 0 1-1.361-1.515l.391-26.756a1.498 1.498 0 0 1 1.566-1.477l11.409.497a1.5 1.5 0 0 1 1.435 1.52l-.373 27.32a1.5 1.5 0 0 1-1.5 1.48zm-9.908-3.928 8.431.784.33-24.242-8.412-.366-.349 23.824z"/><path fill="#ccc" d="M417.717 422.21c-2.207-.299-4.425-.643-6.455-1.474-1.722-.705-3.264-1.742-4.775-2.788a218.731 218.731 0 0 1-7.18-5.188 103.386 103.386 0 0 0 5.812 10.916c.318.52.658 1.054 1.183 1.377.628.386 1.42.41 2.17.412 2.36.007 4.73-.084 7.109-.101 11.927-.085 23.97 1.7 36.345 1.355 1.76-.05 7.988.344 8.205-1.47.246-2.056-2.457-1.848-3.863-1.802-6.191.206-12.277.536-18.36.376-6.83-.18-13.574-.72-20.19-1.613z"/><path d="M459.286 427.375a1.5 1.5 0 0 1-1.435-1.94c.755-2.463.345-5.05-1.127-7.1-1.414-1.97-3.548-3.135-5.855-3.198l-.512-.016-51.251-.255a1.5 1.5 0 0 1 .008-3h.008l51.834.272c3.2.088 6.268 1.75 8.205 4.447 2.023 2.817 2.59 6.364 1.557 9.73a1.499 1.499 0 0 1-1.432 1.06z"/><path d="M451.352 477.184c-.108 0-.217-.003-.325-.01l-70.706-3.706c-2.704-.149-4.907-2.343-5.128-5.103-.538-6.697-1.164-13.524-1.769-20.126-1.084-11.828-2.205-24.058-2.963-36.881-.069-1.12.32-2.22 1.067-3.011.697-.74 1.592-1.116 2.624-1.146l18.575-.563c2.094.003 4.636 1.685 5.726 3.254.026.039.051.078.074.12l7.932 14.08 53.891.79a4.43 4.43 0 0 1 3.263 1.493 4.531 4.531 0 0 1 1.072 3.511c-.213 1.88-.527 3.92-.804 5.718-.134.875-.26 1.689-.358 2.39-.192 1.359-.627 3.508-1.01 5.405-.257 1.268-.493 2.435-.619 3.183a1.5 1.5 0 0 1-2.959-.5c.131-.77.373-1.972.637-3.278.376-1.856.8-3.959.98-5.23.1-.71.228-1.537.365-2.426.272-1.771.58-3.78.788-5.604.052-.454-.07-.875-.347-1.19a1.404 1.404 0 0 0-1.052-.472l-54.754-.803a1.5 1.5 0 0 1-1.284-.764l-8.316-14.763c-.674-.921-2.314-1.913-3.182-1.914l-18.575.563c-.25 0-.397.11-.484.203-.181.192-.275.474-.256.774.757 12.777 1.875 24.983 2.957 36.787.605 6.61 1.231 13.446 1.771 20.16.1 1.251 1.11 2.282 2.298 2.347l70.706 3.707c1.407.082 2.65-.906 2.871-2.234.93-5.625 1.661-8.909 2.435-12.385.343-1.544.696-3.134 1.083-4.997a1.499 1.499 0 1 1 2.937.61c-.39 1.878-.746 3.481-1.092 5.038-.764 3.435-1.486 6.68-2.404 12.226-.46 2.757-2.866 4.747-5.665 4.747z"/><path d="m388.256 454.138 54.176 1.997c1.442.053 2.653-1.013 2.702-2.381l.342-9.602c.05-1.369-1.084-2.51-2.527-2.547l-54.217-1.416c-1.327-.034-2.438.999-2.482 2.308l-.313 9.183c-.045 1.308.992 2.409 2.319 2.458z"/><path fill="#ccc" d="M444.298 490.01c1.018 4.705 6.1 7.796 11.062 9.086 5.347 1.39 11.21 1.338 16.228-.758 5.056-2.111 9.106-6.423 10.053-11.56.949-5.143-1.558-10.908-6.444-13.626 2.627 3.177 2.892 7.663 1.328 11.316-1.56 3.644-4.715 6.501-8.274 8.538-4.716 2.7-10.58 4.098-15.902 2.488-5.28-1.597-9.569-6.755-8.694-11.817.223 4.345 1.842 8.663 4.596 12.244l-3.953-5.91z"/><path d="M458.684 458.728c-5.765-.22-11.176 1.726-15.243 5.5-3.733 3.463-5.886 8.108-6.062 13.081-.38 10.656 8.522 19.933 19.841 20.68.485.032.97.048 1.451.048 5.29 0 10.397-1.904 14.196-5.332 3.843-3.47 6.061-8.173 6.246-13.247.4-10.97-8.764-20.27-20.429-20.73zm9.783 15.057-13.008 11.092a.995.995 0 0 1-1.367-.064l-5.595-5.765a1 1 0 1 1 1.435-1.393l4.943 5.092 12.296-10.483a1 1 0 1 1 1.296 1.521zM336.477 220.18a1.502 1.502 0 0 1-1.5-1.467l-.22-10.296a1.501 1.501 0 0 1 1.397-1.53l78.782-5.398c.416-.027.812.112 1.114.389s.48.665.489 1.075l.255 11.879a1.5 1.5 0 0 1-1.428 1.53l-78.817 3.817a1.19 1.19 0 0 1-.072.002zm1.31-10.397.157 7.325 75.818-3.672-.19-8.847-75.785 5.194zM337.143 239.678a1.5 1.5 0 0 1-1.5-1.468l-.222-10.3a1.501 1.501 0 0 1 1.455-1.533l78.928-2.405c.382-.013.788.136 1.08.412.29.275.457.656.466 1.055l.256 11.885a1.501 1.501 0 0 1-1.484 1.532l-78.963.822h-.016zm1.31-10.347.158 7.332 75.963-.79-.19-8.856-75.931 2.314zM416.268 261.725h-.042L337.28 259.5a1.5 1.5 0 0 1-1.458-1.468l-.22-10.296a1.5 1.5 0 0 1 1.5-1.532h.012l78.912.643a1.5 1.5 0 0 1 1.487 1.467l.255 11.878a1.5 1.5 0 0 1-1.5 1.533zm-77.477-5.184 75.944 2.14-.19-8.846-75.91-.619.156 7.325z"/><path d="M402.709 208.107c.122 5.673-3.697 10.442-8.458 10.649-4.682.203-8.518-4.098-8.636-9.604s3.523-10.264 8.202-10.633c4.757-.375 8.77 3.915 8.892 9.588zM380.135 253.903c.117 5.443-3.401 9.724-7.794 9.564-4.324-.157-7.871-4.57-7.985-9.858-.114-5.289 3.247-9.573 7.568-9.568 4.39.004 8.094 4.42 8.211 9.862zM347.61 232.784c.11 5.13-3.008 9.296-6.91 9.307-3.845.01-7.006-4.027-7.114-9.02-.107-4.991 2.879-9.155 6.72-9.302 3.9-.149 7.194 3.886 7.304 9.015zM367.204 353.764c-15.652-1.42-22.624-1.839-30.16-3.767-5.039-1.289-9.83-2.745-13.07-6.361-5.914-6.573-5.484-19.081-5.774-27.011a1.5 1.5 0 0 1 1.444-1.554 1.508 1.508 0 0 1 1.554 1.445c.031.867.052 1.826.073 2.854.14 6.837.354 17.17 4.935 22.261 2.681 2.993 7.008 4.29 11.583 5.46 6.011 1.538 11.848 2.066 18.027 2.625l11.66 1.06a1.5 1.5 0 1 1-.272 2.988zM526.196 368.268c-.442 0-.886-.022-1.33-.066l-35.19-3.228a1.5 1.5 0 0 1 .274-2.988l35.202 3.23c1.541.15 3.071-.036 4.55-.56l.045-.015c4.085-1.474 6.823-5.434 6.98-10.096a2.69 2.69 0 0 1 .009-.177c.014-.114.01-.227.01-.34l-.508-191.387c-.018-5.313-3.255-9.677-8.06-10.863a10.902 10.902 0 0 0-3.6-.244l-47.71 4.933a1.5 1.5 0 0 1-.309-2.984l47.724-4.935a13.844 13.844 0 0 1 4.534.299l.048.01c6.182 1.51 10.35 7.048 10.373 13.78v.918l.508 190.468c0 .204-.003.404-.02.604-.002.008-.002.015-.002.019-.197 5.905-3.723 10.939-8.983 12.825l-.05.017a13.44 13.44 0 0 1-4.495.78z"/><path d="M319.694 308.055a1.5 1.5 0 0 1-1.5-1.494l-.523-125.333c-.023-7.089 4.482-13.085 10.255-13.653l89.681-8.365a1.5 1.5 0 0 1 .28 2.988l-89.675 8.363c-4.172.41-7.56 5.191-7.541 10.656l.523 125.331a1.5 1.5 0 0 1-1.494 1.507h-.006zM524.839 149.038c10.37-2.09 17.493 4.951 20.463 12.273 2.97 7.322 2.59 15.65 2.358 23.645-1.576 54.503 2.558 109.748 1.248 163.473-.25 10.243-7.413 18.307-16.761 19.748-2.514.387-4.53.33-7.797-.254 6.432-.363 11.126-5.5 13.463-12.012 2.337-6.511.89-15.136.818-22.124-.505-49.595-.326-97.407-.831-147.002-.076-7.403 1.693-18.365-.616-25.332-2.31-6.967-5.692-10.776-12.345-12.415z"/><path d="M568.87 190.666a1.5 1.5 0 0 1-1.497-1.417c-1.435-26.018-19.743-49.733-44.523-57.67a1.5 1.5 0 0 1 .453-2.93l.975-.002h.002a1.5 1.5 0 0 1 1.248.667c25.039 8.848 43.372 33.158 44.84 59.77a1.5 1.5 0 0 1-1.498 1.582zM338.67 193.316a1.5 1.5 0 0 1-.11-2.996c18.675-1.41 173.71-13.52 192.435-14.935a1.5 1.5 0 1 1 .226 2.991c-9.391.71-53.718 4.16-96.588 7.497-42.529 3.31-86.507 6.733-95.847 7.439-.04.002-.077.004-.115.004z"/><ellipse cx="521.653" cy="164.091" rx="4.249" ry="4.144"/><ellipse cx="508.416" cy="164.588" rx="4.249" ry="4.144"/><ellipse cx="492.075" cy="165.583" rx="4.249" ry="4.144"/><path d="M469.002 220.74c-.058 4.9 4.687 8.752 10.252 7.667 3.329-.65 6.075-3.156 6.812-6.259 1.272-5.314-3.053-9.813-8.501-9.603-4.725.184-8.519 3.854-8.563 8.195z"/><path d="M477.375 230.09c-5.66 0-9.931-4.3-9.872-9.365.051-5.125 4.539-9.467 10.003-9.679 6.426-.249 11.524 5.167 10.018 11.452-.865 3.65-4.073 6.618-7.982 7.38-.726.143-1.453.212-2.167.212zm.547-16.051c-.1 0-.2.002-.3.005-3.89.15-7.083 3.162-7.12 6.71v.004c-.046 3.9 3.781 7.085 8.465 6.177 2.773-.542 5.04-2.604 5.638-5.133 1.026-4.28-2.402-7.763-6.683-7.763zm-8.92 6.7h.01-.01zM500.8 252.909l-46.596-2.282c.097-9.193 9.786-16.542 22.276-16.416 13.229.126 24.435 8.499 24.32 18.698z"/><path d="M500.8 254.409c-.025 0-.05 0-.074-.002l-46.596-2.282a1.5 1.5 0 0 1-1.426-1.514c.107-10.085 10.385-17.902 23.46-17.902l.33.002c12.676.12 25.942 8.194 25.805 20.215a1.5 1.5 0 0 1-1.5 1.483zm-44.993-5.205 43.411 2.126c-1.103-9.472-12.336-15.52-22.753-15.62a30.93 30.93 0 0 0-.301 0c-10.75 0-19.327 5.786-20.357 13.494z"/><path d="M512.977 268.922a1.35 1.35 0 0 1-.098-.004l-67.708-4.448a1.5 1.5 0 0 1-1.402-1.47l-1.104-60.564a1.5 1.5 0 0 1 1.441-1.527l68.527-2.664c.421-.002.803.135 1.096.416.294.281.461.67.463 1.077l.1 23.506a1.5 1.5 0 0 1-1.493 1.506h-.006a1.5 1.5 0 0 1-1.5-1.494l-.094-21.953-65.508 2.547 1.053 57.717 64.728 4.253-.11-33.121a1.5 1.5 0 0 1 1.496-1.505h.005a1.5 1.5 0 0 1 1.5 1.495l.114 34.728a1.503 1.503 0 0 1-1.5 1.505zM370.914 165.369c-.29 0-.58-.083-.838-.257l-27.399-18.47c-2.282-1.673-3.24-1.809-4.101-1.809h-30.634a1.5 1.5 0 0 1 0-3h30.634c1.908 0 3.487.638 5.828 2.355l27.35 18.437a1.5 1.5 0 0 1-.84 2.744z"/><path d="M310.482 123.474h-47.65a1.5 1.5 0 0 0-1.5 1.5v34.912a1.5 1.5 0 0 0 1.5 1.5h47.65a1.5 1.5 0 0 0 1.5-1.5v-34.912a1.5 1.5 0 0 0-1.5-1.5zm-13.16 25.146H278.75a1.5 1.5 0 0 1 0-3h18.572a1.5 1.5 0 0 1 0 3zm4.719-12.707h-29.369a1.5 1.5 0 0 1 0-3h29.369a1.5 1.5 0 0 1 0 3z"/><path fill="#ccc" d="M117.514 343.079c3.214 1.811 7.06 1.144 10.646.684 6.962-.893 13.999-.826 21.014-.757l41.012.4c-23.126-9.335-41.861-1.169-63.02-4.278-4.276-.628-9.388-.605-12.733-3.579-3.15-2.801-5.404-8.14-3.486-12.391.916 6.88-.405 15.99 6.567 19.92zM155.115 314.58c-2.497-.554-5.356-1.4-6.321-3.767-.774-1.9.005-4.041.78-5.94l2.525-6.187c.583-1.428 1.058-3.33-.146-4.294-.755-.604-1.833-.51-2.792-.385l-6.162.804c1.838.308 2.729 1.298 3.013 3.14.104.673 1.25 1.056 1.045 1.706l-1.796 5.714c-.422 1.341-.848 2.707-.86 4.113s.446 2.884 1.527 3.783c.908.757 2.12 1.014 3.28 1.246l9.416 1.886-3.51-1.82zM218.81 317.036c-3.107.377-6.167.456-9.238.548.102-.004-4.126.242 9.239-.548zM231.48 323.858c-.413 2.97-.827 5.942-1.231 8.912-.214 1.546-.436 3.12-1.04 4.559-1.218 2.897-3.9 4.98-6.817 6.157-1.871.755-4.318 1.65-6.304 1.212 1.095-.305 9.057-3.13 8.638-4.599l-.188-.657c-.167-.547-.324-1.103-.481-1.65.398.05.752-.09 1.038-.35.456-.393.746-1.075.77-1.702.023-.425-.028-.837-.08-1.25-.085-.614-.18-1.219-.118-1.829.064-.564.258-1.087.526-1.584.33-.61.76-1.187 1.165-1.753.738-1.03 1.434-2.233 1.27-3.48-.16-1.21-1.541-2.25-2.592-1.725a.845.845 0 0 0-.126.069c.036-.03.062-.058.098-.087 1.52-1.332 3.142-3.175 2.488-5.068-.736-2.112-3.573-2.365-5.797-2.233-1.296.082-2.592.154-3.888.236 5.896-.697 8.045-2.323 10.452-1.125 1.312.655 2.108 2.092 2.36 3.548.262 1.446.056 2.937-.143 4.399zM205.105 298.063c2.342-5.552 3.435-11.54 3.927-17.572-.198 3.946-1.124 22.023-1.48 28.974 0 .009 0 .018-.008.028-.204 1.97-11.595 5.437-13.73 5.98-3.023.768-6.157 1.244-9.252 1.24 9.498-2.62 16.737-9.603 20.543-18.65zM209.37 273.976a110.483 110.483 0 0 1-.338 6.515c.12-2.169.228-4.346.338-6.515z"/><path d="M103.143 299.348a1.5 1.5 0 0 1-1.473-1.78c4.072-21.359 11.851-41.956 23.12-61.219 2.37-4.052 5.051-8.24 9.423-11.02 9.367-5.954 24.266-4.15 33.102-9.476a1.5 1.5 0 0 1 1.984.398c3.365 4.595 7.409 9.494 11.093 13.98 3.946 4.807 11.689 3.255 13.372-2.66.225-.793 1.07-1.337 1.867-1.114.795.221 1.285.963 1.068 1.759l-.027.094c-1.115 3.924-4.12 6.707-8.058 7.527a10.755 10.755 0 0 1-10.54-3.702c-3.464-4.216-7.188-8.733-10.406-13.045-4.579 2.368-10.221 3.269-15.693 4.142-14.258 2.278-18.227 3.745-24.595 14.632-10.734 18.346-18.25 37.918-22.358 58.204 17.063-2.343 33.908-3.113 50.122-2.287.715-2.065 1.359-4.2 1.983-6.274.743-2.466 1.51-5.017 2.407-7.479a1.5 1.5 0 1 1 2.818 1.025c-.866 2.384-1.622 4.892-2.352 7.32-.744 2.465-1.511 5.016-2.408 7.478a1.507 1.507 0 0 1-1.492.984c-17.018-.943-34.763-.104-52.742 2.498-.071.01-.144.015-.215.015z"/><path d="M135.984 340.708c-3.533 0-7.259-.08-11.64-.359-3.34-.213-7.131-.621-9.838-2.792-2.725-2.186-3.61-5.515-4.159-8.785-1.598-9.51-2-21.699-1.046-31.808a1.499 1.499 0 1 1 2.986.281c-.93 9.868-.54 21.758 1.02 31.03.42 2.501 1.037 5.307 3.076 6.942 2.024 1.623 5.137 1.946 8.153 2.138 7.168.457 12.585.373 18.32.282 4.188-.066 8.518-.134 13.725.013a1.5 1.5 0 0 1 1.457 1.542c-.023.829-.74 1.497-1.541 1.457-5.14-.144-9.438-.077-13.595-.012-2.312.036-4.572.071-6.918.071zM268.255 292.484c0-.415.167-.79.439-1.063.126-.126 7.082-8.575 16.998-14.392.916-.54 1.836-1.034 2.984-1.146 1.324-.146 3.058.382 3.683 1.884.506 1.174.033 2.328-.22 2.948a65.438 65.438 0 0 1-6.305 11.66 1.5 1.5 0 0 1-2.48-1.687c3.644-5.362 6.118-11.122 6.22-11.733-.676-.336-1.725.286-2.362.66-5.935 3.482-12.045 8.83-16.221 13.737-1.014 1.243-2.736.49-2.736-.868zm2.73.864v.001zm0 0zM232.438 294.761c-.031-.821.567-1.513 1.387-1.554h.01l.14 1.496.038 1.5c-.79.03-1.542-.602-1.575-1.442z"/><path d="M300.005 293.061a1.5 1.5 0 0 1-.641-2.857c9.456-4.46 9.87-4.561 10.423-5.202.202-.23.242-.468.224-.526-.035-.038-.368-.374-2.103-.115a85.198 85.198 0 0 0-20.572 5.713 1.5 1.5 0 1 1-1.16-2.767 88.156 88.156 0 0 1 21.291-5.913c1.487-.223 3.61-.343 4.86 1.18 1.01 1.206.895 3.06-.278 4.398-1.053 1.219-2.504 1.742-5.754 3.282a1.63 1.63 0 0 1-.095.041l-5.555 2.622a1.495 1.495 0 0 1-.64.144z"/><path d="M300.195 300.147a1.5 1.5 0 0 1-.378-2.952 45.476 45.476 0 0 0 10.562-4.233c1.83-1.012 1.952-1.64 1.946-1.81-.013-.337-.713-.913-1.654-1.012-1.478-.162-3.516-.148-4.561.188a1.77 1.77 0 0 1-.462.082c-.826.034-1.519-.63-1.541-1.458a1.5 1.5 0 0 1 1.148-1.5c1.627-.501 4.098-.474 5.736-.295 2.035.216 4.247 1.65 4.332 3.884.096 2.563-2.606 4.057-3.492 4.547-.8.44-1.564.837-2.34 1.213a48.126 48.126 0 0 1-8.916 3.297c-.127.033-.254.049-.38.049z"/><path d="M300.382 306.496a1.5 1.5 0 0 1-.456-2.93l8.145-2.6c.992-.314 2.015-.638 2.786-1.146.618-.417 1.04-.973 1.062-1.406-.125-.498-1.85-1.586-2.921-1.472l-.07.011c-.81.154-1.607-.344-1.785-1.135-.179-.792.27-1.574 1.057-1.775a3.7 3.7 0 0 1 .447-.08c1.595-.179 3.636.589 4.974 1.849.891.84 1.339 1.789 1.294 2.746-.07 1.41-.942 2.778-2.394 3.758-1.133.747-2.412 1.152-3.54 1.51l-8.143 2.599a1.5 1.5 0 0 1-.456.071z"/><path d="M299.131 312.018a1.5 1.5 0 0 1 1.153-1.782c1.927-.413 3.396-.909 4.626-1.56 2.233-1.188 3.678-3.076 3.681-4.811a1.5 1.5 0 0 1 1.5-1.498h.002a1.5 1.5 0 0 1 1.498 1.503c-.004 2.87-2.025 5.728-5.275 7.455-1.482.786-3.198 1.372-5.403 1.845a1.5 1.5 0 0 1-1.782-1.152zM201.279 383.76c-50.886-16.876-97.664-15.237-97.564-15.229a1.5 1.5 0 0 1-1.499-1.544c.406-13.841 3.372-40.143 6.733-54.623a1.494 1.494 0 0 1 1.8-1.122 1.5 1.5 0 0 1 1.122 1.8c-3.2 13.787-6.038 38.434-6.602 52.473 30.493-.234 65.903 5.307 95.473 14.911 3.368-11.781 5.449-22.423 4.855-35.277a1.5 1.5 0 0 1 1.429-1.568 1.508 1.508 0 0 1 1.567 1.43c.639 13.808-1.698 25.076-5.403 37.746a1.5 1.5 0 0 1-1.911 1.003zM182.09 593.853l-4.391-25.337a1.5 1.5 0 1 1 2.955-.513l4.39 25.337a1.5 1.5 0 1 1-2.955.513zM232.684 593.473a1.5 1.5 0 0 1-.963-1.89c.905-2.782-4.675-9.817-7.514-10.969-4.323-1.754-9.818-2.291-14.504-3.902-4.754-1.635-10.319-5.508-10.356-11.045a1.5 1.5 0 0 1 1.49-1.51h.01a1.5 1.5 0 0 1 1.5 1.49c.027 3.968 4.504 6.912 8.331 8.228 4.717 1.621 9.839 2.004 14.657 3.959 3.89 1.58 10.802 9.869 9.24 14.676a1.5 1.5 0 0 1-1.89.963zM97.446 592.008c-.15-3.917-.187-8.755-.224-13.434a734.31 734.31 0 0 0-.093-8.287 1.5 1.5 0 0 1 1.47-1.53h.03a1.5 1.5 0 0 1 1.5 1.471c.048 2.516.07 5.383.093 8.323.036 4.657.074 9.471.222 13.343a1.5 1.5 0 0 1-2.998.114zM143.283 595.612a1.5 1.5 0 0 1-.02-3c.148-.002.284-.024.46-.28.67-.979.623-3.45.239-4.483-.91-2.45-2.34-3.514-4.83-4.726-4.064-1.979-8.805-2.917-13.319-4.485-5.508-1.914-4.349-6.186-4.947-9.723a1.5 1.5 0 0 1 2.959-.499c.74 4.397-.436 6.204 2.972 7.388 4.476 1.556 9.29 2.5 13.649 4.622 2.984 1.453 5.083 3.027 6.328 6.377.629 1.69.786 5.236-.576 7.224-.69 1.006-1.718 1.57-2.895 1.585h-.02zM209.166 289.431a1.5 1.5 0 0 1-1.363-1.626c1.062-12.04.26-5.603 1.328-17.74a1.499 1.499 0 1 1 2.989.264c-.533 6.045-.598 7.449-.66 8.807-.064 1.389-.13 2.825-.668 8.933a1.5 1.5 0 0 1-1.626 1.362zM232.158 294.977a1.5 1.5 0 0 1-1.316-1.664c4.796-40.942-22.32-58.834-32.528-65.57-1.525-1.007-2.73-1.801-3.491-2.44a1.5 1.5 0 1 1 1.928-2.299c.63.529 1.771 1.282 3.215 2.235 10.63 7.014 38.868 25.646 33.857 68.423a1.5 1.5 0 0 1-1.665 1.315z"/><path d="M194.965 229.594a1.5 1.5 0 0 1-1.258-1.708l1.625-10.73a1.5 1.5 0 0 1 2.967.45l-1.626 10.73a1.5 1.5 0 0 1-1.708 1.258zM203.755 327.546a1.5 1.5 0 0 1-.032-3c2.318-.05 4.572-.171 6.698-.357 4.297-.355 8.627-.969 12.878-1.825 1.253-.26 2.355-.522 3.052-1.096.327-.266.666-.86.452-1.108-.273-.31-1.13-.426-2.53-.33-3.76.242-7.632.254-11.376.267-.97.004-1.94.007-2.91.014-2.567.015-5.597.058-8.607.26a1.524 1.524 0 0 1-1.502-.967 1.5 1.5 0 0 1 .488-1.719c2.378-1.832 4.765-3.665 7.153-5.498.285-.224.57-.452.768-.67.117-.126.181-.22.214-.279a.668.668 0 0 0-.096-.064 1.441 1.441 0 0 0-.65-.181H207.58c-.643.015-1.353.312-2.085.641-.726.322-1.44.634-2.152.944-6.753 2.945-6.848 3.211-8.85 4.233-3.511 1.737-7.32 2.519-11.034 2.272-8.598-.542-17.211-1.093-25.816-1.644-.683-.041-1.373-.083-2.063-.133-1.273-.075-2.57-.159-3.865-.244-1.779-.113-3.996-.255-5.818-1.352-3.478-2.092-3.808-6.389-2.956-9.712.41-1.561.66-3.715.9-5.798.086-.75.173-1.5.268-2.234a41.136 41.136 0 0 1 .104-.765l.143-.94c.042-.27.084-.534.13-.791a1.5 1.5 0 1 1 2.953.526c-.042.237-.08.482-.12.732l-.137.907c-.03.201-.06.405-.087.614a.511.511 0 0 1-.006.056c-.094.734-.181 1.487-.268 2.239-.253 2.187-.514 4.45-.977 6.208-.58 2.268-.467 5.144 1.6 6.388 1.196.72 2.933.83 4.465.928 1.29.085 2.58.17 3.868.244.7.051 1.376.092 2.052.133 8.61.55 17.221 1.102 25.825 1.644 3.637.244 7.29-.703 10.231-2.348 2.665-1.472 5.382-2.658 8.26-3.913.704-.308 1.414-.618 2.127-.933 1.09-.49 2.381-.994 3.634-.897 1.617.035 3.378 1.115 3.6 2.84.08.665-.034 1.662-1.013 2.71-.583.645-1.33 1.157-4.534 3.619 5.906-.145 12.243.046 18.115-.33 1.16-.079 3.588-.244 4.991 1.354a3.31 3.31 0 0 1 .786 2.481c-.096 1.089-.694 2.18-1.6 2.917-1.22 1.003-2.755 1.384-4.353 1.714-4.371.881-8.818 1.511-13.225 1.876a107 107 0 0 1-6.884.367h-.035z"/><path d="M203.323 334.61a1.501 1.501 0 0 1-.065-2.998 119.369 119.369 0 0 0 19.802-2.542c1.045-.225 1.966-.45 2.66-.923.582-.397.954-1.025.904-1.525-.114-.363-1.05-1.168-1.502-1.268a1.5 1.5 0 0 1-.837-2.877c.863-.294 1.874-.09 2.93.587 1.019.653 2.257 1.899 2.393 3.257.164 1.617-.678 3.266-2.196 4.304-1.142.779-2.412 1.096-3.721 1.377a122.337 122.337 0 0 1-20.368 2.609zm21.75-9.264z"/><path d="M203.338 339.729c-.506 0-1.011-.005-1.517-.015a1.5 1.5 0 0 1-1.472-1.527c.016-.829.716-1.535 1.529-1.472a78.663 78.663 0 0 0 20.832-2.426c.848-.217 1.646-.45 2.086-.92.116-.126.348-.676.267-1.158a.66.66 0 0 0-.375-.522 1.5 1.5 0 1 1 1.432-2.636 3.663 3.663 0 0 1 1.906 2.684c.209 1.29-.219 2.805-1.04 3.683-.993 1.059-2.29 1.458-3.533 1.775a81.213 81.213 0 0 1-20.115 2.534z"/><path d="M194.263 344.309c-3.04-.46-6.113-1.152-9.086-1.821-4.881-1.1-9.928-2.235-14.902-2.355l-.83-.028a59.307 59.307 0 0 0-5.77.026c-.85.034-1.534-.592-1.577-1.42s.592-1.532 1.42-1.576c2.778-.145 4.66-.077 6.034-.028l.8.027c5.266.127 10.46 1.296 15.485 2.427 2.92.657 5.94 1.337 8.876 1.782 9.164 1.387 18.87 2.012 27.225-1.91.534-.252 1.125-.562 1.445-.949.1-.11.13-.151.154-.193a.82.82 0 0 0 .09-.54c-.73-.39-.994-1.323-.603-2.054.39-.731 1.31-1.029 2.042-.638.77.412 1.316 1.173 1.5 2.089.182.867.035 1.82-.406 2.6a3.605 3.605 0 0 1-.524.716c-.64.775-1.587 1.29-2.42 1.683-8.956 4.206-19.118 3.651-28.953 2.162zM208.482 318.744c-.125-1.402-.097-.912-.103-1.08-.268-2.858-.365-3.903-.473-4.992a1.5 1.5 0 1 1 2.984-.297c.109 1.09.21 2.173.31 3.248l.17 1.826c.037.32.065.638.093.95.074.825-.533 1.593-1.357 1.666-.819.074-1.55-.49-1.624-1.32z"/><path d="M212.85 365.335a1.5 1.5 0 0 1-1.499-1.467c-.109-5.03-1.01-15.412-1.21-20.123a1.5 1.5 0 0 1 1.436-1.562c.815-.049 1.527.607 1.562 1.435.082 1.955.29 4.924.51 8.069.265 3.792.537 7.692.654 10.618 16.991-.371 24.298-1.089 62.993-5.37a1.501 1.501 0 0 1 .328 2.982l-5.886.65c-36.749 4.07-43.774 4.475-58.858 4.768h-.03zM282.97 357.885a1.5 1.5 0 0 1 1.312-1.666 418.976 418.976 0 0 0 16.153-2.23c-.448-17.753-1.147-35.503-1.55-48.946l-.066-2.117c-.044-1.409-.089-2.822-.125-4.239a869.135 869.135 0 0 1-.177-6.549l-57.74 3.72c-7.63.451-26.545 1.051-31.066 1.365l.047 8.025c.012 2.148.02 3.849.024 3.98a1.505 1.505 0 0 1-1.462 1.528c-.812.008-1.508-.621-1.537-1.443-.002-.05-.013-1.811-.025-4.048-.02-3.575-.05-8.96-.06-9.369a1.5 1.5 0 0 1 1.46-1.567c5.95-.465 23.092-.913 32.433-1.466l59.282-3.819a1.5 1.5 0 0 1 1.103.386c.69.624.441 1.39.528 2.08.054 2.39.117 4.75.188 7.094.037 1.417.081 2.824.126 4.227l.065 2.122c.402 13.377 1.144 32.323 1.584 50.274.018.75-.52 1.398-1.26 1.518a422.244 422.244 0 0 1-17.572 2.453 1.499 1.499 0 0 1-1.666-1.313zM169.16 278.143l-.062-.001-13.758-.564a1.5 1.5 0 1 1 .123-2.997l13.758.564a1.5 1.5 0 0 1-.06 2.998zM135.445 247.995a1.5 1.5 0 0 1-1.492-1.67c.919-8.074 7.036-15.213 14.875-17.36a1.5 1.5 0 1 1 .793 2.894c-6.687 1.83-11.904 7.92-12.688 14.806a1.5 1.5 0 0 1-1.488 1.33zM200.072 264.67a38.029 38.029 0 0 0-7.804-11.34 1.5 1.5 0 0 1 2.125-2.118 41.062 41.062 0 0 1 8.417 12.23 1.5 1.5 0 1 1-2.738 1.227zM120.993 359.477c-.384-1.1-1.456-1.99-2.609-2.163-1.153-.17-2.436.363-3.125 1.303-.714.972-2.246.748-2.633-.414l-.633-1.906-1.917.924a1.501 1.501 0 0 1-1.303-2.703l3.454-1.664a1.502 1.502 0 0 1 2.075.878l.463 1.396c3.493-2.003 7.794-.274 9.06 3.361a1.499 1.499 0 1 1-2.832.988zM187.24 363.94a1.501 1.501 0 0 1-1.392-.968c-.426-1.121-.866-2.282-1.58-3.114-.627-.73-1.473-1.123-2.141-1.004-.532.095-.918.693-.82.973.488 1.392-1.128 2.576-2.308 1.7l-5.623-4.162a1.5 1.5 0 0 1 1.785-2.41l3.743 2.77c1.753-2.715 6.116-2.742 8.546 1.472a10.044 10.044 0 0 1 2.64-2.258 1.5 1.5 0 0 1 1.524 2.584 7.07 7.07 0 0 0-2.969 3.47c-.394.992-1.505.979-1.405.947zM189.454 305.159a1.5 1.5 0 0 1-.051-2.121 22.756 22.756 0 0 0 6.235-16.246 1.5 1.5 0 0 1 1.456-1.542 1.51 1.51 0 0 1 1.542 1.456c.195 6.783-2.38 13.49-7.061 18.402a1.5 1.5 0 0 1-2.121.05zM113.345 288.096l-1.532-6.308a1.5 1.5 0 0 1 1.716-1.832l1.945.34c.145-3.13 1.407-5.174 3.593-5.712a1.499 1.499 0 1 1 .717 2.914c-1.192.293-1.434 2.589-1.279 4.466.081.98-.786 1.769-1.752 1.601l-1.484-.259.992 4.082a1.5 1.5 0 0 1-2.916.708zM169.568 216.099a1.5 1.5 0 0 1-1.487-1.712c.288-2.013.43-3.555.566-5.047.244-2.66.457-4.99 1.43-8.819-1.63-1.227-2.398-2.864-3.278-4.66-1.471-2.986-1.34-6.424.343-8.97 3.257-4.933 11.476-5.222 12.978.68.44 1.737.017 3.454-1.161 4.713a1.5 1.5 0 1 1-2.19-2.051c.638-.68.55-1.498.443-1.924-.82-3.23-5.73-2.546-7.568.235-1.96 2.97-.019 6.213.005 6.314.797 1.625 1.425 2.91 2.853 3.656a1.5 1.5 0 0 1 .752 1.722c-1.148 4.232-1.356 6.503-1.62 9.378-.133 1.458-.285 3.11-.583 5.197a1.5 1.5 0 0 1-1.483 1.288z"/><path d="M171.525 184.937c-.007.002-.8-5.51-.867-6.013-.251-1.892-.14-3.224.412-5.101 2.451-8.347 8.732-17.268 17.13-19.68 4.694-1.348 10.206-.405 13.59 3.118.694.722 1.31 1.553 2.183 2.045 1.863 1.052 4.169.244 6.22-.366 3.89-1.157 8.383-1.434 11.751.832 4.605 3.097 5.583 9.874 1.6 14.596-4.912 5.823-9.705.564-14.178 1.994-1.334.427-2.412 1.396-3.6 2.137-2.672 1.668-6.35 1.25-9.278.661a66.204 66.204 0 0 1-8.272-2.23 79.089 79.089 0 0 1-7.497 12.13c-.262.349-1.11.613-1.453.881a5.915 5.915 0 0 0-.02-2.57c-.225-.97-.59-1.288-1.474-1.754-1.783-.94-4.347-1.35-6.247-.68z"/><path d="M177.8 189.626c.235-1.091-.03-2.147-.152-2.309-.086-.116-.429-.296-.575-.373-1.564-.823-3.686-1.074-5.048-.592a1.5 1.5 0 0 1-1.281-.135c-.69-.42-.69-.42-1.573-7.096-.277-2.086-.153-3.638.46-5.721 2.622-8.926 9.284-18.15 18.155-20.698 5.348-1.534 11.51-.48 15.605 4.083.447.494.867.96 1.319 1.215 1.33.75 3.487-.025 5.055-.498 15.911-4.73 21.846 9.631 14.926 17.832-5.51 6.532-11.17 1.27-14.868 2.457-.722.23-1.42.72-2.16 1.237-.364.255-.729.51-1.104.743-3.196 1.996-7.447 1.447-10.366.86a68.016 68.016 0 0 1-7.226-1.873 80.86 80.86 0 0 1-7.047 11.202c-.374.498-.921.765-1.405 1-.128.062-.254.118-.345.178-1.075.845-2.672-.11-2.37-1.512zm2.256-4.098c.285.384.451.794.555 1.14a77.795 77.795 0 0 0 6.263-10.408 1.503 1.503 0 0 1 1.825-.75 64.865 64.865 0 0 0 8.086 2.18c2.418.486 5.896.967 8.186-.463.33-.206.65-.432.972-.657.849-.594 1.81-1.267 2.966-1.636 5.195-1.662 9.212 3.537 13.49-1.534 3.363-3.99 2.623-9.75-1.292-12.383-3.371-2.267-8.017-1.373-10.486-.64-2.464.742-5.048 1.554-7.386.236-.877-.495-1.51-1.198-2.07-1.818-.15-.167-.301-.334-.456-.495-2.788-2.901-7.649-3.993-12.095-2.715-7.876 2.262-13.804 10.821-16.105 18.66-.494 1.681-.586 2.812-.363 4.482.043.331.393 2.765.632 4.42 2.396-.228 6.041.715 7.278 2.381z"/><path d="M190.275 213.036a1.5 1.5 0 0 1 2.328-1.893c3 3.692 9.593 4.57 13.305 1.774 2.537-1.908 3.63-4.995 4.433-8.047 2.76-10.494 3.413-18.616 2.181-27.157a1.5 1.5 0 0 1 1.27-1.698c.811-.118 1.58.45 1.699 1.27 1.293 8.964.62 17.442-2.25 28.348-.895 3.404-2.253 7.217-5.53 9.681-5.064 3.81-13.373 2.72-17.436-2.278zM262.587 596.129h-.007l-176.671-.852a1.5 1.5 0 0 1-1.493-1.507c.005-.827.684-1.538 1.506-1.493l176.671.852a1.5 1.5 0 0 1-.006 3zM193.355 379.539a1.5 1.5 0 0 0-1.13-1.16c-1.54-.359-3.034-.723-4.527-1.087l-.203-.049a1.493 1.493 0 0 0-.78-.674c-23.588-8.792-48.474-6.718-73-10.621a1.5 1.5 0 0 0-1.73 1.614c2.52 28.288 10.489 58.358 4.473 86.098-4.178 19.262-8.038 39.006-11.772 58.1-3.462 17.709-7.746 39.626-11.855 58.527a1.5 1.5 0 0 0 1.529 1.817c10.843-.46 22.316.101 33.063-.366a1.5 1.5 0 0 0 1.335-.96c1.864-4.852 3.57-9.361 5.217-13.787a1481.42 1481.42 0 0 0 22.81-65.815c4.104-25.415 6.83-51.278 8.068-76.965.027-.551.541-.958 1.047-.95a1 1 0 0 1 .951 1.047 696.456 696.456 0 0 1-7.333 72.476c3.129 19.228 8.756 54.924 12.2 68.79a699.348 699.348 0 0 1 3.187 13.33 1.501 1.501 0 0 0 1.509 1.167c9.33-.289 18.84-3.52 27.882-3.799a1.5 1.5 0 0 0 1.45-1.396c.244-3.551.46-7.105.643-10.56a687.344 687.344 0 0 0-13.034-174.777zm-68.888-5.478a.986.986 0 0 1 1.11.877 9.815 9.815 0 0 0 2.328 5.249l1.572-3.456a1 1 0 0 1 1.558-.348c2.32 1.971 5.959 2.369 8.65.949a1 1 0 1 1 .933 1.769c-3.053 1.612-6.924 1.407-9.83-.424l-1.658 3.647a1 1 0 0 1-1.564.343 11.814 11.814 0 0 1-3.976-7.497 1 1 0 0 1 .877-1.109zm-8.747 188.02a1.001 1.001 0 0 1-.512-1.934 8.976 8.976 0 0 0 5.101-3.644 1 1 0 1 1 1.664 1.11c-1.45 2.172-3.73 3.8-6.253 4.469zm10.406-1.709-2.99 3.204a1 1 0 1 1-1.462-1.366l2.99-3.203a1 1 0 1 1 1.462 1.365zm-10.236-16.854a1 1 0 1 1-1.9-.623 1033.871 1033.871 0 0 0 30.919-117.104 1 1 0 0 1 1.96.396 1036.05 1036.05 0 0 1-30.979 117.33zM180.725 401.2a26.903 26.903 0 0 0 3.25-13.387 1 1 0 0 1 .979-1.021h.021a1 1 0 0 1 1 .979 28.916 28.916 0 0 1-3.492 14.383 1 1 0 0 1-1.758-.954zm-1.895 58.378a.992.992 0 0 1 1.049-.949 1 1 0 0 1 .949 1.049c-.38 7.62.315 15.403.987 22.928 1.349 15.117.62 8.895 3.055 54.348a1 1 0 0 1-1.998.1l-2.114-41.995c-.593-11.802-2.517-23.647-1.928-35.48zm9.8 97.331a1 1 0 0 1-1.114-.946c-.075-.016-.167-.016-.206.008-.797.73.368 3.137-.879 4.832-.795 1.082-2.392 1.426-3.563.777a1 1 0 0 1 .972-1.748c.301.166.777.062.98-.213.29-.396.245-1.12.201-1.82-.068-1.11-.018-2.429.948-3.311.661-.603 1.751-.708 2.588-.25.06.034.12.07.176.108a.21.21 0 0 0-.027-.071.999.999 0 1 1 1.68-1.085c.923 1.43-.063 3.522-1.756 3.72zm12.327-29.768c-1.538-.131-2.109-1.903-.927-2.366a.998.998 0 0 1 1.183.354c.01-.005.02-.01.026-.015.413-.703-1.232-2.857-1.921-4.262-.791-1.613-.905-3.185-.32-4.425.317-.675.81-1.174.934-1.61.288-1.001-1.116-2.328-1.51-3.99-.497-2.092.695-3.985 1.338-5.646.416-1.074.534-2.947-.511-3.338a1 1 0 0 1 .7-1.873c2.22.829 2.539 3.704 1.677 5.932-.145.374-.311.75-.477 1.127-1.218 2.752-1 3.207-.106 4.817 1.086 1.955 1.354 3.026.122 4.85-.13.19-.261.378-.359.584-.431.916.008 2.08.308 2.691.527 1.074 1.298 2.053 1.815 3.282.6 1.427-.307 4.026-1.972 3.888z"/><path d="M200.38 205.65a1.5 1.5 0 0 1 2.014-2.225c.335.304.822.454 1.27.39a1.5 1.5 0 0 1 .416 2.971 4.618 4.618 0 0 1-3.7-1.136zM203.959 200.473c-.312-.14-.843-.437-.984-.456-.82.125-1.554-.444-1.677-1.263-.122-.82.471-1.584 1.29-1.706.869-.131 1.579.18 2.12.45l-1.154-8.336a1.5 1.5 0 0 1 1.28-1.691 1.49 1.49 0 0 1 1.691 1.28l1.251 9.037c.05.35.143 1.01-.178 1.68-.62 1.299-2.226 1.639-3.64 1.005zM97.648 170.24a1.5 1.5 0 0 1-1.298-.747l-4.406-7.576a1.5 1.5 0 1 1 2.594-1.508l4.406 7.576a1.5 1.5 0 0 1-1.296 2.254z"/><path d="M97.633 170.483a1.5 1.5 0 0 1-.486-2.92l7.512-2.573c.785-.27 1.637.149 1.905.932s-.15 1.637-.933 1.906L98.12 170.4a1.5 1.5 0 0 1-.487.082z"/><path d="M105.685 167.464a1.5 1.5 0 0 1-1.438-1.93l1.931-6.459a1.5 1.5 0 0 1 2.875.86l-1.932 6.459a1.5 1.5 0 0 1-1.436 1.07z"/><path d="M116.146 162.368a1.49 1.49 0 0 1-.245-.02l-8.443-1.387a1.5 1.5 0 0 1-1.238-1.723 1.506 1.506 0 0 1 1.724-1.237l8.443 1.387a1.5 1.5 0 0 1-.24 2.98z"/><path d="M115.169 169.667a1.5 1.5 0 0 1-1.485-1.724l1.107-7.346a1.5 1.5 0 0 1 2.967.447l-1.108 7.347a1.5 1.5 0 0 1-1.481 1.276z"/><path d="M121.239 174.875c-.438 0-.872-.19-1.168-.558a19.65 19.65 0 0 0-5.793-4.843 1.5 1.5 0 1 1 1.441-2.63 22.682 22.682 0 0 1 6.686 5.589 1.5 1.5 0 0 1-1.166 2.442z"/><path d="M121.539 174.862a1.5 1.5 0 0 1-.868-2.724 36.886 36.886 0 0 1 7.268-4.003 1.5 1.5 0 1 1 1.143 2.775 33.943 33.943 0 0 0-6.678 3.676 1.49 1.49 0 0 1-.865.276z"/><path d="M134.221 178.723c-.527 0-1.04-.28-1.313-.775a35.769 35.769 0 0 0-5.297-7.246 1.501 1.501 0 0 1 2.182-2.06 38.821 38.821 0 0 1 5.74 7.854 1.5 1.5 0 0 1-1.312 2.227z"/><path d="M128.384 184.266a1.5 1.5 0 0 1-.85-2.737 21.21 21.21 0 0 0 5.009-4.81 1.5 1.5 0 0 1 2.404 1.795 24.214 24.214 0 0 1-5.715 5.489c-.26.178-.555.263-.848.263z"/><path d="M128.685 190.474a1.5 1.5 0 0 1-1.493-1.374l-.474-5.643a1.5 1.5 0 0 1 1.37-1.62c.83-.077 1.55.543 1.62 1.369l.474 5.643a1.5 1.5 0 0 1-1.497 1.625z"/><path d="M135.974 192.717c-.224 0-.452-.05-.666-.157-1.471-.73-3.514-1.217-5.317-1.646-.473-.112-.932-.222-1.368-.331a1.5 1.5 0 1 1 .734-2.91c.424.107.87.213 1.328.323 1.96.466 4.18.994 5.957 1.878a1.5 1.5 0 0 1-.668 2.843z"/><path d="M134.297 202.32a1.5 1.5 0 0 1-1.479-1.765c.194-1.08.358-2.159.524-3.254.288-1.89.585-3.843 1.05-5.93a1.5 1.5 0 1 1 2.928.65c-.441 1.988-.732 3.891-1.01 5.731-.172 1.122-.34 2.227-.538 3.331a1.501 1.501 0 0 1-1.475 1.237z"/><path d="M133.937 202.68c-.046 0-.092-.003-.138-.007-2.55-.232-4.774-.627-7.68-1.365a1.5 1.5 0 1 1 .739-2.908c2.742.697 4.831 1.07 7.213 1.286a1.5 1.5 0 0 1-.134 2.993z"/><path d="M121.577 206.31a1.5 1.5 0 0 1-.864-2.727c2.264-1.594 3.753-3.107 4.552-4.625a1.499 1.499 0 1 1 2.655 1.398c-1.025 1.947-2.818 3.806-5.48 5.681a1.492 1.492 0 0 1-.863.274z"/><path d="M125.01 214.438a1.5 1.5 0 0 1-1.433-1.06 49.39 49.39 0 0 0-3.195-7.883 1.5 1.5 0 0 1 2.674-1.363 52.53 52.53 0 0 1 3.388 8.365 1.5 1.5 0 0 1-1.435 1.941z"/><path d="M117.687 218.598a1.502 1.502 0 0 1-.554-2.894c2.52-1 4.88-2.35 7.019-4.01a1.5 1.5 0 0 1 1.84 2.369 31.671 31.671 0 0 1-7.751 4.429c-.182.072-.37.106-.554.106z"/><path d="M117.713 218.626c-.455 0-.904-.206-1.199-.596l-4.26-5.649a1.5 1.5 0 0 1 2.397-1.805l4.258 5.647a1.5 1.5 0 0 1-1.196 2.403z"/><path d="M105.918 214.27a1.5 1.5 0 0 1-.142-2.993c1.776-.17 3.135-.43 4.856-.76.695-.132 1.444-.275 2.296-.427a1.5 1.5 0 1 1 .527 2.953c-.838.15-1.575.29-2.26.421-1.797.344-3.217.615-5.132.8a1.465 1.465 0 0 1-.145.006z"/><path d="M103.068 221.482a1.502 1.502 0 0 1-1.397-2.048l2.873-7.315a1.5 1.5 0 0 1 2.793 1.095l-2.873 7.315a1.501 1.501 0 0 1-1.396.953z"/><path d="M103.125 221.61c-.06 0-.121-.003-.183-.01-2.445-.297-3.892-.714-6.081-1.345-.745-.215-1.581-.457-2.581-.728a1.499 1.499 0 1 1 .785-2.895c1.018.276 1.87.521 2.628.74 2.123.612 3.404.982 5.61 1.25a1.5 1.5 0 0 1-.178 2.989z"/><path d="M94.614 219.587a1.5 1.5 0 0 1-1.493-1.66l.81-7.587a1.509 1.509 0 0 1 1.65-1.332 1.5 1.5 0 0 1 1.333 1.652l-.81 7.587a1.5 1.5 0 0 1-1.49 1.34z"/><path d="M95.576 212.194c-.35 0-.703-.122-.988-.372a548.559 548.559 0 0 1-2.762-2.444c-.907-.805-1.814-1.61-2.688-2.377a1.5 1.5 0 1 1 1.979-2.255c.879.771 1.79 1.58 2.701 2.39.927.823 1.853 1.646 2.748 2.43a1.5 1.5 0 0 1-.99 2.628z"/><path d="M82.714 211.613a1.501 1.501 0 0 1-.693-2.83 112.018 112.018 0 0 0 7.267-4.136 1.5 1.5 0 0 1 1.58 2.55c-2.42 1.5-4.93 2.928-7.462 4.246-.22.116-.458.17-.692.17z"/><path d="M82.335 211.619c-.368 0-.735-.134-1.024-.404a28.97 28.97 0 0 1-5.956-7.838 1.501 1.501 0 0 1 2.662-1.384 25.968 25.968 0 0 0 5.341 7.029 1.5 1.5 0 0 1-1.023 2.597z"/><path d="M76.724 204.315a1.5 1.5 0 0 1-.91-2.693l7.036-5.362a1.5 1.5 0 1 1 1.819 2.386l-7.037 5.363c-.271.206-.59.306-.908.306z"/><path d="M83.598 199.057a1.5 1.5 0 0 1-1.454-1.137c-.286-1.146-.645-2.357-.993-3.527-.355-1.196-.723-2.433-1.023-3.638a1.5 1.5 0 1 1 2.91-.727c.285 1.14.643 2.346.989 3.511.356 1.202.726 2.444 1.027 3.654a1.5 1.5 0 0 1-1.456 1.864z"/><path d="M81.673 191.912c-.145 0-.293-.021-.44-.066l-7.24-2.218a1.5 1.5 0 0 1 .879-2.868l7.24 2.218a1.5 1.5 0 0 1-.439 2.934z"/><path d="M74.243 189.483a1.5 1.5 0 0 1-1.44-1.924l2.55-8.656a1.5 1.5 0 1 1 2.877.848l-2.55 8.656a1.5 1.5 0 0 1-1.437 1.076z"/><path d="M82.128 181.605c-1.935 0-3.874-.232-5.736-.692a1.5 1.5 0 1 1 .719-2.912c2.61.645 5.4.776 8.059.381a1.5 1.5 0 1 1 .441 2.968 23.74 23.74 0 0 1-3.483.255z"/><path d="M85.381 181.267a1.5 1.5 0 0 1-1.274-2.289l3.541-5.726a1.5 1.5 0 0 1 2.55 1.579l-3.54 5.724a1.497 1.497 0 0 1-1.277.712z"/><path d="M88.934 175.352a1.5 1.5 0 0 1-1.308-.765l-4.134-7.352a1.5 1.5 0 0 1 2.615-1.47l4.134 7.351a1.5 1.5 0 0 1-1.307 2.236z"/><path d="M84.818 167.902a1.5 1.5 0 0 1-.697-2.83c1.382-.723 2.698-1.57 4.092-2.466 1.387-.893 2.823-1.815 4.322-2.601a1.5 1.5 0 0 1 1.393 2.657c-1.382.724-2.699 1.57-4.092 2.467-1.388.892-2.824 1.815-4.323 2.601-.222.117-.46.172-.695.172zM118.752 180.046a1.475 1.475 0 0 0-.138-.16l-1.566-1.574a1.28 1.28 0 0 0-.084-.079c-4.314-3.721-7.82-4.89-12.954-4.31-6.806.757-12.66 6.48-13.617 13.314-.935 6.775 3.127 13.883 9.454 16.534 1.837.763 3.808 1.126 5.783 1.126 4.822 0 9.667-2.171 12.628-6.009 4.305-5.54 4.512-13.464.494-18.842zm-2.061 4.359c-4.299 3.563-8.632 7.686-12.53 11.924a1.003 1.003 0 0 1-.72.323h-.017a.999.999 0 0 1-.712-.299l-7.147-7.269a1 1 0 1 1 1.426-1.402l6.412 6.522c3.77-4.03 7.906-7.936 12.01-11.34a1 1 0 1 1 1.278 1.54z"/><circle cx="281.135" cy="310.952" r="8.292"/><path d="M281.134 320.744c-5.399 0-9.792-4.392-9.792-9.792s4.393-9.792 9.792-9.792 9.792 4.393 9.792 9.792-4.392 9.792-9.792 9.792zm0-16.584a6.8 6.8 0 0 0-6.792 6.792c0 3.745 3.047 6.792 6.792 6.792s6.792-3.047 6.792-6.792a6.8 6.8 0 0 0-6.792-6.792z"/><circle cx="283.842" cy="333.629" r="4.569"/><path d="M283.842 339.698a6.076 6.076 0 0 1-6.069-6.07c0-3.346 2.723-6.068 6.07-6.068s6.069 2.722 6.069 6.068a6.076 6.076 0 0 1-6.07 6.07zm0-9.138c-1.692 0-3.069 1.376-3.069 3.068s1.377 3.07 3.07 3.07 3.069-1.377 3.069-3.07-1.377-3.068-3.07-3.068zM231.511 315.23a1.5 1.5 0 0 1-1.465-1.534 1.486 1.486 0 0 1 1.534-1.466c11.08.251 22.285-.29 33.295-1.615a1.5 1.5 0 0 1 .36 2.979 237.565 237.565 0 0 1-33.724 1.635zM246.175 325.216c-.841 0-1.685-.026-2.53-.077a1.5 1.5 0 0 1-1.407-1.587 1.491 1.491 0 0 1 1.587-1.407 38.753 38.753 0 0 0 13.687-1.627 1.5 1.5 0 0 1 .877 2.87 41.69 41.69 0 0 1-12.214 1.828zM242.159 340.208c-.494 0-.988-.001-1.48-.004a1.5 1.5 0 0 1 .01-3h.009c9.272.063 18.67-.47 27.894-1.585a1.5 1.5 0 1 1 .36 2.979 224.187 224.187 0 0 1-26.793 1.61zM257.213 348.366c-.956 0-1.913-.069-2.866-.207a1.5 1.5 0 0 1 .434-2.97c3.021.443 6.116.052 8.94-1.127a1.5 1.5 0 0 1 1.156 2.769 19.894 19.894 0 0 1-7.664 1.535zM503.652 287.208l-.048-.001-116.542-3.664a1.5 1.5 0 0 1-1.452-1.547c.026-.827.706-1.512 1.546-1.452l116.542 3.664a1.5 1.5 0 0 1-.046 3zM521.997 301.58h-43.553a1.5 1.5 0 0 1 0-3h43.553a1.5 1.5 0 0 1 0 3zM501.747 318.544h-13.139a1.5 1.5 0 0 1 0-3h13.139a1.5 1.5 0 0 1 0 3zM390.5 338.153a1.5 1.5 0 0 1-1.001-1.87c1.463-4.843 6.715-8.123 11.71-7.314a1.5 1.5 0 0 1 1.24 1.72 1.506 1.506 0 0 1-1.72 1.241c-3.504-.565-7.333 1.822-8.36 5.22a1.5 1.5 0 0 1-1.868 1.003zM455.146 326.163c-.222-3.763-2.566-7.54-6.272-10.107-3.038-2.103-6.899-3.483-12.149-4.34a1.5 1.5 0 1 1 .485-2.961c5.705.932 9.954 2.468 13.37 4.834 4.46 3.087 7.286 7.722 7.56 12.398a1.5 1.5 0 1 1-2.994.176zM481.087 356.984a1.5 1.5 0 0 1-1.316-2.218c.834-1.532 1.697-3.117 1.902-4.751.16-1.271-.176-2.879-1.29-3.605a1.5 1.5 0 1 1 1.64-2.513c1.934 1.263 2.965 3.811 2.627 6.493-.276 2.196-1.321 4.117-2.244 5.811a1.5 1.5 0 0 1-1.319.783zM575.756 171.203a1.5 1.5 0 0 1-1.49-1.36c-1.469-15.614-9.893-30.474-22.538-39.75a1.5 1.5 0 1 1 1.774-2.418c13.325 9.774 22.204 25.433 23.75 41.888a1.5 1.5 0 0 1-1.496 1.64zM470.786 524.788a1.501 1.501 0 0 1-.31-2.968c9.734-2.064 19.076-8.453 26.308-17.991 7.035-9.28 11.3-20.187 14.545-29.633a1.5 1.5 0 0 1 2.838.975c-3.323 9.67-7.702 20.853-14.993 30.47-7.667 10.112-17.637 16.9-28.075 19.113a1.5 1.5 0 0 1-.313.034zM501.776 519.252a1.5 1.5 0 0 1-.768-2.79c4.314-2.566 7.372-7.057 8.181-12.012a1.5 1.5 0 1 1 2.961.483c-.95 5.82-4.542 11.094-9.608 14.108a1.49 1.49 0 0 1-.766.211zM94.257 398.43a1.5 1.5 0 0 1-1.364-.875c-9.997-21.766-15.056-45.93-14.63-69.877a1.5 1.5 0 0 1 1.498-1.473h.028a1.501 1.501 0 0 1 1.473 1.526c-.418 23.5 4.547 47.212 14.358 68.572a1.5 1.5 0 0 1-1.363 2.127zM475.128 118.598c-2.713-.092-5.418-1.188-7.42-3.008-1.99-1.807-3.374-4.972-3.706-8.467-.172-1.795-1.627-3.252-3.614-3.252l-26.867.302c-1.738.02-3.215 1.307-3.513 3.062-.23 1.36-1.162 2.96-1.844 4.162-2.186 3.854-6.014 6.82-10.239 7.937-1.87.495-3.147 2.272-3.037 4.227.53 9.358 3.934 19.506 9.105 27.147 5.473 8.087 12.358 14.761 20.463 19.836 1.215.76 2.772.803 4.067.107 17.392-9.345 30.22-29.458 30.501-47.825.035-2.258-1.713-4.155-3.896-4.228zM447.08 146.37c-6.443 0-11.667-5.224-11.667-11.667s5.224-11.667 11.667-11.667 11.667 5.224 11.667 11.667-5.223 11.667-11.667 11.667z"/><path d="M445.414 140.87c-.384 0-.768-.146-1.06-.439l-5-5a1.5 1.5 0 1 1 2.12-2.12l3.94 3.939 7.964-7.964a1.5 1.5 0 1 1 2.12 2.12l-9.024 9.025c-.293.293-.677.44-1.06.44z"/></svg>